<?xml version="1.0" encoding="UTF-8" standalone="no"?>
<svg
   xmlns:dc="http://purl.org/dc/elements/1.1/"
   xmlns:cc="http://creativecommons.org/ns#"
   xmlns:rdf="http://www.w3.org/1999/02/22-rdf-syntax-ns#"
   xmlns:svg="http://www.w3.org/2000/svg"
   xmlns="http://www.w3.org/2000/svg"
   xmlns:sodipodi="http://sodipodi.sourceforge.net/DTD/sodipodi-0.dtd"
   xmlns:inkscape="http://www.inkscape.org/namespaces/inkscape"
   id="Capa_1"
   enable-background="new 0 0 512 512"
   height="512"
   viewBox="0 0 512 512"
   width="512"
   version="1.1"
   sodipodi:docname="kettle-icon-blue.svg"
   inkscape:version="1.0.2 (e86c870879, 2021-01-15)">
  <metadata
     id="metadata59">
    <rdf:RDF>
      <cc:Work
         rdf:about="">
        <dc:format>image/svg+xml</dc:format>
        <dc:type
           rdf:resource="http://purl.org/dc/dcmitype/StillImage" />
        <dc:title></dc:title>
      </cc:Work>
    </rdf:RDF>
  </metadata>
  <defs
     id="defs57" />
  <sodipodi:namedview
     pagecolor="#ffffff"
     bordercolor="#666666"
     borderopacity="1"
     objecttolerance="10"
     gridtolerance="10"
     guidetolerance="10"
     inkscape:pageopacity="0"
     inkscape:pageshadow="2"
     inkscape:window-width="1920"
     inkscape:window-height="1027"
     id="namedview55"
     showgrid="false"
     inkscape:zoom="1.0150849"
     inkscape:cx="288.98369"
     inkscape:cy="223.07133"
     inkscape:window-x="1912"
     inkscape:window-y="-8"
     inkscape:window-maximized="1"
     inkscape:current-layer="g52" />
  <g
     id="g52">
    <g
       id="g36">
      <path
         d="m201.5 31h-37c-8.284 0-15 6.716-15 15v25h67v-25c0-8.284-6.716-15-15-15z"
         fill="#ddeafb"
         id="path2" />
      <path
         d="m216.5 46v25h-30v-25c0-8.28-6.72-15-15-15h30c8.28 0 15 6.72 15 15z"
         fill="#bed8fb"
         id="path4" />
      <path
         d="m397.75 298.375 21.194-10.121c24.77-11.76 40.556-36.729 40.556-64.149 0-14.396-4.376-28.453-12.547-40.305l-11.785-17.094c-13.253-19.225-35.112-30.706-58.464-30.706h-59.704l-31-45h95.878c34.514 0 66.825 16.962 86.425 45.371l16.737 24.259c12.672 18.367 19.459 40.154 19.459 62.469v1.2c0 42.641-24.644 81.441-63.241 99.567l-33.529 15.738z"
         fill="#8b818e"
         id="path6" />
      <path
         d="m504.5 223.1v1.2c0 42.64-24.64 81.44-63.24 99.57l-33.53 15.73-3.06-12.64 6.59-3.09c38.6-18.13 63.24-56.93 63.24-99.57v-1.2c0-22.32-6.79-44.1-19.46-62.47l-16.74-24.26c-19.6-28.41-51.91-45.37-86.42-45.37h30c34.51 0 66.82 16.96 86.42 45.37l16.74 24.26c12.67 18.37 19.46 40.15 19.46 62.47z"
         fill="#756e78"
         id="path8" />
      <path
         d="m251.5 61h-137c-11.046 0-20 8.954-20 20v20h177v-20c0-11.046-8.954-20-20-20z"
         fill="#8b818e"
         id="path10" />
      <path
         d="m271.5 81v20h-30v-20c0-11.05-8.95-20-20-20h30c11.05 0 20 8.95 20 20z"
         fill="#756e78"
         id="path12" />
      <path
         d="m354.568 481h-293.136c-12.795 0-22.299-11.848-19.524-24.339l1.111-5c2.034-9.15 10.15-15.661 19.524-15.661l142.457-10 148.457 10c9.374 0 17.49 6.511 19.524 15.661l1.111 5c2.775 12.491-6.729 24.339-19.524 24.339z"
         fill="#8b818e"
         id="path14" />
      <path
         d="m354.57 481h-30c12.79 0 22.3-11.85 19.52-24.34l-1.11-5c-2.03-9.15-10.15-15.66-19.52-15.66h30c9.37 0 17.49 6.51 19.52 15.66l1.11 5c2.78 12.49-6.73 24.34-19.52 24.34z"
         fill="#756e78"
         id="path16" />
      <path
         d="m377.837 207.679-57.721-97.299c-7.2-12.167-20.288-19.38-34.425-19.38h-240.848c-8.908 0-13.413 10.563-7.072 16.82 8.832 8.714 18.504 20.323 24.707 34.33 3.914 8.839 3.27 18.973-1.652 27.293l-22.663 38.268c-20.073 33.923-30.663 72.585-30.663 112.002v66.287c0 27.614 22.386 50 50 50h301c27.614 0 50-22.386 50-50v-66.287c0-39.417-10.59-78.11-30.663-112.034z"
         fill="#ecf4ff"
         id="path18" />
      <path
         d="m408.5 319.71v66.29c0 27.61-22.39 50-50 50h-30c3.43 0 6.78-.35 10.01-1.01 22.82-4.63 39.99-24.81 39.99-48.99v-66.29c0-39.41-10.59-78.11-30.66-112.03l-57.72-97.3c-7.2-12.17-20.29-19.38-34.43-19.38h30c14.14 0 27.23 7.21 34.43 19.38l57.72 97.3c20.07 33.92 30.66 72.62 30.66 112.03z"
         fill="#ddeafb"
         id="path20" />
      <path
         d="m353.5 406h-291c-13.807 0-25-11.193-25-25v-52.001c0-25.731 5.226-51.194 15.362-74.845l9.443-22.033c3.152-7.353 10.382-12.121 18.383-12.121h254.624c8.001 0 15.231 4.768 18.383 12.122l9.443 22.033c10.136 23.651 15.362 49.114 15.362 74.845v52c0 13.807-11.193 25-25 25z"
         fill="#aa7a63"
         id="path22"
         style="fill:#47e4ff;fill-opacity:1" />
      <g
         fill="#986b54"
         id="g34">
        <path
           d="m378.5 329v52c0 13.81-11.19 25-25 25h-30c13.81 0 25-11.19 25-25v-52c0-25.73-5.23-51.2-15.36-74.85l-9.45-22.03c-3.15-7.35-10.38-12.12-18.38-12.12h30c8 0 15.23 4.77 18.38 12.12l9.45 22.03c10.13 23.65 15.36 49.12 15.36 74.85z"
           id="path24"
           style="fill:#3dc4db;fill-opacity:1" />
        <path
           d="m208 371.5c-8.284 0-15-6.716-15-15 0-8.284 6.716-15 15-15 8.284 0 15 6.716 15 15 0 8.284-6.716 15-15 15z"
           id="path26"
           style="fill:#3dc4db;fill-opacity:1" />
        <path
           d="m126 327.5c-8.284 0-15-6.716-15-15 0-8.284 6.716-15 15-15 8.284 0 15 6.716 15 15 0 8.284-6.716 15-15 15z"
           id="path28"
           style="fill:#3dc4db;fill-opacity:1" />
        <path
           d="m290 325.5c-8.284 0-15-6.716-15-15 0-8.284 6.716-15 15-15 8.284 0 15 6.716 15 15 0 8.284-6.716 15-15 15z"
           id="path30"
           style="fill:#3dc4db;fill-opacity:1" />
        <path
           d="m208 281.5c-8.284 0-15-6.716-15-15 0-8.284 6.716-15 15-15 8.284 0 15 6.716 15 15 0 8.284-6.716 15-15 15z"
           id="path32"
           style="fill:#3dc4db;fill-opacity:1" />
      </g>
    </g>
    <g
       id="g50">
      <path
         d="m270 212.5h-189.312c-11.015 0-20.936 6.542-25.276 16.667l-9.443 22.033c-10.596 24.724-15.969 50.9-15.969 77.799v52.001c0 17.92 14.579 32.5 32.5 32.5h291c17.921 0 32.5-14.58 32.5-32.5v-52.001c0-26.899-5.373-53.075-15.969-77.799l-9.442-22.033c-4.341-10.125-14.262-16.667-25.276-16.667h-30.313c-4.143 0-7.5 3.358-7.5 7.5s3.357 7.5 7.5 7.5h30.312c5.007 0 9.517 2.974 11.489 7.576l9.442 22.033c9.791 22.847 14.756 47.034 14.756 71.89v52.001c0 9.649-7.851 17.5-17.5 17.5h-291c-9.649 0-17.5-7.851-17.5-17.5v-52.001c0-24.856 4.965-49.043 14.756-71.891l9.442-22.032c1.973-4.603 6.482-7.577 11.489-7.577h189.314c4.143 0 7.5-3.358 7.5-7.5s-3.357-7.499-7.5-7.499z"
         id="path38" />
      <path
         d="m491.214 156.371-16.737-24.259c-21.001-30.44-55.618-48.612-92.599-48.612h-102.878v-2.5c0-15.164-12.337-27.5-27.5-27.5h-27.5v-7.5c0-12.407-10.094-22.5-22.5-22.5h-37c-12.406 0-22.5 10.093-22.5 22.5v7.5h-27.5c-15.163 0-27.5 12.336-27.5 27.5v2.5h-42.157c-7.166 0-13.539 4.245-16.234 10.815-2.702 6.586-1.209 13.807 3.896 18.843 10.527 10.387 18.305 21.163 23.116 32.028 2.906 6.562 2.439 14.202-1.248 20.434l-22.664 38.271c-20.744 35.057-31.709 75.107-31.709 115.822v31.287c0 4.142 3.357 7.5 7.5 7.5s7.5-3.358 7.5-7.5v-31.287c0-38.029 10.241-75.438 29.616-108.181l22.664-38.271c6.152-10.398 6.921-23.164 2.055-34.149-5.576-12.592-14.423-24.917-26.296-36.632-1.283-2.103-.682-3.43 1.804-3.981h240.847c11.697 0 22.153 5.869 27.975 15.707l57.717 97.292c19.377 32.746 29.618 70.166 29.618 108.215v66.287c0 23.435-19.065 42.5-42.5 42.5h-301c-23.435 0-42.5-19.065-42.5-42.5 0-4.142-3.357-7.5-7.5-7.5s-7.5 3.358-7.5 7.5c0 25.495 16.684 47.155 39.703 54.667-1.851 2.778-3.24 5.925-4.004 9.367l-1.111 5c-1.819 8.186.147 16.632 5.395 23.173s13.064 10.293 21.45 10.293h293.135c8.386 0 16.204-3.751 21.451-10.292s7.214-14.987 5.395-23.173l-1.111-5c-.765-3.442-2.153-6.589-4.005-9.367 23.018-7.513 39.702-29.173 39.702-54.668v-41.986l28.447-13.359c41.036-19.272 67.553-61.019 67.553-106.356v-1.2c0-23.944-7.188-47.018-20.786-66.728zm-126.896 312.45c-2.385 2.974-5.939 4.679-9.751 4.679h-293.134c-3.812 0-7.366-1.705-9.751-4.679-2.385-2.973-3.278-6.812-2.452-10.532l1.111-5c1.28-5.764 6.298-9.789 12.202-9.789h290.914c5.904 0 10.922 4.025 12.202 9.789l1.111 5c.827 3.72-.067 7.559-2.452 10.532zm-207.318-422.821c0-4.136 3.364-7.5 7.5-7.5h37c4.136 0 7.5 3.364 7.5 7.5v7.5h-52zm-55 35c0-6.893 5.607-12.5 12.5-12.5h137c6.893 0 12.5 5.607 12.5 12.5v2.5h-162zm282.287 122.853-35.803-60.353h28.22c20.888 0 40.435 10.267 52.29 27.463l11.784 17.094c7.341 10.65 11.222 23.115 11.222 36.048 0 24.392-14.237 46.913-36.272 57.374l-2.754 1.307c-4.57-27.757-14.261-54.554-28.687-78.933zm112.713 20.446c0 39.549-23.131 75.967-58.93 92.779l-22.07 10.364v-7.729c0-7.122-.343-14.222-1.007-21.28l7.168-3.403c27.238-12.932 44.839-40.772 44.839-70.925 0-15.989-4.797-31.398-13.872-44.562l-11.784-17.094c-14.655-21.258-38.819-33.949-64.64-33.949h-37.119l-13.015-21.939c-1.74-2.941-3.773-5.626-6.03-8.061h61.338c32.051 0 62.052 15.75 80.253 42.13l16.737 24.259c11.861 17.194 18.132 37.322 18.132 58.21z"
         id="path40" />
      <path
         d="m208 334c-12.406 0-22.5 10.093-22.5 22.5s10.094 22.5 22.5 22.5 22.5-10.093 22.5-22.5-10.094-22.5-22.5-22.5zm0 30c-4.136 0-7.5-3.364-7.5-7.5s3.364-7.5 7.5-7.5 7.5 3.364 7.5 7.5-3.364 7.5-7.5 7.5z"
         id="path42" />
      <path
         d="m103.5 312.5c0 12.407 10.094 22.5 22.5 22.5s22.5-10.093 22.5-22.5-10.094-22.5-22.5-22.5-22.5 10.093-22.5 22.5zm30 0c0 4.136-3.364 7.5-7.5 7.5s-7.5-3.364-7.5-7.5 3.364-7.5 7.5-7.5 7.5 3.364 7.5 7.5z"
         id="path44" />
      <path
         d="m267.5 310.5c0 12.407 10.094 22.5 22.5 22.5s22.5-10.093 22.5-22.5-10.094-22.5-22.5-22.5-22.5 10.093-22.5 22.5zm22.5-7.5c4.136 0 7.5 3.364 7.5 7.5s-3.364 7.5-7.5 7.5-7.5-3.364-7.5-7.5 3.364-7.5 7.5-7.5z"
         id="path46" />
      <path
         d="m208 244c-12.406 0-22.5 10.093-22.5 22.5s10.094 22.5 22.5 22.5 22.5-10.093 22.5-22.5-10.094-22.5-22.5-22.5zm0 30c-4.136 0-7.5-3.364-7.5-7.5s3.364-7.5 7.5-7.5 7.5 3.364 7.5 7.5-3.364 7.5-7.5 7.5z"
         id="path48" />
    </g>
  </g>
</svg>
